<svg xmlns="http://www.w3.org/2000/svg" viewBox="0 0 512 512"><!--!Font Awesome Free 6.5.2 by @fontawesome - https://fontawesome.com License - https://fontawesome.com/license/free Copyright 2024 Fonticons, Inc.--><path fill="#4b4e53" d="M502.6 310l-96.7 96.7a31.9 31.9 0 0 1 -45 0L280.6 326.3l-9.9 9.9a190.6 190.6 0 0 1 -5.4 168.5c-4.5 8.5-16.4 9.6-23.2 2.8L134.5 400.1l-17.8 17.8c.7 2.6 1.6 5 1.6 7.8a32 32 0 1 1 -32-32c2.8 0 5.2 .9 7.8 1.6l17.8-17.8L4.4 269.9c-6.8-6.8-5.7-18.6 2.8-23.2a190.6 190.6 0 0 1 168.5-5.4l9.8-9.8-80.3-80.4a32 32 0 0 1 0-45.1L202 9.3A31.6 31.6 0 0 1 224.5 0a32 32 0 0 1 22.6 9.3l80.3 80.3 47.8-47.9a33.6 33.6 0 0 1 47.5 0l47.5 47.5a33.6 33.6 0 0 1 0 47.5l-47.8 47.9L502.7 265A31.8 31.8 0 0 1 502.6 310zM219.6 197.4l73.8-73.8-68.9-68.9-73.8 73.8zm237.7 90.1-68.9-68.9-73.8 73.8 68.9 68.9z"/></svg>